<mxfile host="app.diagrams.net" modified="2021-05-01T14:50:17.312Z" agent="5.0 (Windows)" etag="evT4Bomw-AG5SYb7R2hd" version="14.6.9" type="github">
  <diagram id="puacDJ3BUamG4HYMFUjp" name="Page-1">
    <mxGraphModel dx="5002" dy="2300" grid="1" gridSize="10" guides="1" tooltips="1" connect="1" arrows="1" fold="1" page="1" pageScale="1" pageWidth="850" pageHeight="1100" math="0" shadow="0">
      <root>
        <mxCell id="0" />
        <mxCell id="1" parent="0" />
        <mxCell id="_f3NkgD60LeYl-ViCV9c-1" value="" style="group" vertex="1" connectable="0" parent="1">
          <mxGeometry x="-510" y="180" width="976" height="750" as="geometry" />
        </mxCell>
        <mxCell id="1JL5kzAqauOL_0TZosul-45" value="" style="rounded=0;whiteSpace=wrap;html=1;strokeWidth=2;gradientColor=#ffa500;fillColor=#ffcd28;strokeColor=#d79b00;" parent="_f3NkgD60LeYl-ViCV9c-1" vertex="1">
          <mxGeometry x="360" y="470" width="320" height="280" as="geometry" />
        </mxCell>
        <mxCell id="1JL5kzAqauOL_0TZosul-43" value="" style="rounded=0;whiteSpace=wrap;html=1;strokeWidth=2;gradientColor=#ffa500;fillColor=#ffcd28;strokeColor=#d79b00;" parent="_f3NkgD60LeYl-ViCV9c-1" vertex="1">
          <mxGeometry width="340" height="350" as="geometry" />
        </mxCell>
        <mxCell id="1JL5kzAqauOL_0TZosul-41" value="" style="rounded=0;whiteSpace=wrap;html=1;strokeWidth=2;gradientColor=#ffa500;fillColor=#ffcd28;strokeColor=#d79b00;" parent="_f3NkgD60LeYl-ViCV9c-1" vertex="1">
          <mxGeometry x="540" y="20" width="540" height="400" as="geometry" />
        </mxCell>
        <mxCell id="1JL5kzAqauOL_0TZosul-14" value="" style="group;container=1;" parent="_f3NkgD60LeYl-ViCV9c-1" vertex="1" connectable="0">
          <mxGeometry x="333" y="123" width="425" height="240" as="geometry" />
        </mxCell>
        <mxCell id="1JL5kzAqauOL_0TZosul-3" value="" style="group" parent="1JL5kzAqauOL_0TZosul-14" vertex="1" connectable="0">
          <mxGeometry x="222" width="120" height="60" as="geometry" />
        </mxCell>
        <mxCell id="1JL5kzAqauOL_0TZosul-1" value="" style="rounded=1;whiteSpace=wrap;html=1;fillColor=#ffff88;strokeColor=#36393d;" parent="1JL5kzAqauOL_0TZosul-3" vertex="1">
          <mxGeometry width="120" height="60" as="geometry" />
        </mxCell>
        <mxCell id="1JL5kzAqauOL_0TZosul-2" value="&lt;b&gt;Flask API&lt;/b&gt;" style="text;html=1;strokeColor=none;fillColor=none;align=center;verticalAlign=middle;whiteSpace=wrap;rounded=0;" parent="1JL5kzAqauOL_0TZosul-3" vertex="1">
          <mxGeometry x="30" y="20" width="70" height="20" as="geometry" />
        </mxCell>
        <mxCell id="1JL5kzAqauOL_0TZosul-17" value="" style="rounded=1;whiteSpace=wrap;html=1;gradientColor=#7ea6e0;fillColor=#dae8fc;strokeColor=#6c8ebf;" parent="_f3NkgD60LeYl-ViCV9c-1" vertex="1">
          <mxGeometry x="820" y="123" width="210" height="277" as="geometry" />
        </mxCell>
        <mxCell id="1JL5kzAqauOL_0TZosul-18" value="&lt;b&gt;Docker CLI/API&lt;/b&gt;" style="text;html=1;align=center;verticalAlign=middle;resizable=0;points=[];autosize=1;strokeColor=none;" parent="_f3NkgD60LeYl-ViCV9c-1" vertex="1">
          <mxGeometry x="875" y="140" width="100" height="20" as="geometry" />
        </mxCell>
        <mxCell id="1JL5kzAqauOL_0TZosul-19" style="edgeStyle=orthogonalEdgeStyle;rounded=0;orthogonalLoop=1;jettySize=auto;html=1;startArrow=block;startFill=1;endArrow=block;endFill=1;strokeWidth=2;" parent="_f3NkgD60LeYl-ViCV9c-1" source="1JL5kzAqauOL_0TZosul-1" edge="1">
          <mxGeometry relative="1" as="geometry">
            <mxPoint x="820" y="153" as="targetPoint" />
          </mxGeometry>
        </mxCell>
        <mxCell id="1JL5kzAqauOL_0TZosul-20" value="" style="rounded=0;whiteSpace=wrap;html=1;dashed=1;gradientColor=#ffffff;strokeWidth=3;" parent="_f3NkgD60LeYl-ViCV9c-1" vertex="1">
          <mxGeometry x="865" y="188" width="120" height="182" as="geometry" />
        </mxCell>
        <mxCell id="1JL5kzAqauOL_0TZosul-21" value="&lt;b&gt;HOST&lt;/b&gt; N/W" style="text;html=1;strokeColor=none;fillColor=none;align=center;verticalAlign=middle;whiteSpace=wrap;rounded=0;dashed=1;" parent="_f3NkgD60LeYl-ViCV9c-1" vertex="1">
          <mxGeometry x="890" y="190" width="70" height="20" as="geometry" />
        </mxCell>
        <mxCell id="1JL5kzAqauOL_0TZosul-22" value="" style="ellipse;whiteSpace=wrap;html=1;aspect=fixed;strokeWidth=4;strokeColor=#666666;fontColor=#333333;fillColor=#C4C4C4;" parent="_f3NkgD60LeYl-ViCV9c-1" vertex="1">
          <mxGeometry x="885" y="251" width="80" height="80" as="geometry" />
        </mxCell>
        <mxCell id="1JL5kzAqauOL_0TZosul-23" value="&lt;div&gt;Ansible &lt;br&gt;&lt;/div&gt;&lt;div&gt;Container&lt;/div&gt;&lt;div&gt;SSH Keys &lt;br&gt;&lt;/div&gt;" style="text;html=1;strokeColor=none;fillColor=none;align=center;verticalAlign=middle;whiteSpace=wrap;rounded=0;" parent="_f3NkgD60LeYl-ViCV9c-1" vertex="1">
          <mxGeometry x="905" y="285" width="40" height="20" as="geometry" />
        </mxCell>
        <mxCell id="1JL5kzAqauOL_0TZosul-24" value="" style="rounded=0;whiteSpace=wrap;html=1;strokeWidth=2;gradientColor=#ffffff;rotation=90;" parent="_f3NkgD60LeYl-ViCV9c-1" vertex="1">
          <mxGeometry x="370" y="572" width="120" height="60" as="geometry" />
        </mxCell>
        <mxCell id="1JL5kzAqauOL_0TZosul-30" style="edgeStyle=orthogonalEdgeStyle;rounded=0;orthogonalLoop=1;jettySize=auto;html=1;exitX=0;exitY=0.5;exitDx=0;exitDy=0;startArrow=block;startFill=1;endArrow=none;endFill=0;strokeWidth=2;" parent="_f3NkgD60LeYl-ViCV9c-1" source="1JL5kzAqauOL_0TZosul-25" edge="1">
          <mxGeometry relative="1" as="geometry">
            <mxPoint x="520" y="502" as="targetPoint" />
          </mxGeometry>
        </mxCell>
        <mxCell id="1JL5kzAqauOL_0TZosul-25" value="" style="rounded=0;whiteSpace=wrap;html=1;strokeWidth=2;gradientColor=#ffffff;rotation=90;" parent="_f3NkgD60LeYl-ViCV9c-1" vertex="1">
          <mxGeometry x="460" y="572" width="120" height="60" as="geometry" />
        </mxCell>
        <mxCell id="1JL5kzAqauOL_0TZosul-31" style="edgeStyle=orthogonalEdgeStyle;rounded=0;orthogonalLoop=1;jettySize=auto;html=1;exitX=0;exitY=0.5;exitDx=0;exitDy=0;startArrow=block;startFill=1;endArrow=none;endFill=0;strokeWidth=2;" parent="_f3NkgD60LeYl-ViCV9c-1" source="1JL5kzAqauOL_0TZosul-26" edge="1">
          <mxGeometry relative="1" as="geometry">
            <mxPoint x="615" y="502" as="targetPoint" />
          </mxGeometry>
        </mxCell>
        <mxCell id="1JL5kzAqauOL_0TZosul-26" value="" style="rounded=0;whiteSpace=wrap;html=1;strokeWidth=2;gradientColor=#ffffff;rotation=90;" parent="_f3NkgD60LeYl-ViCV9c-1" vertex="1">
          <mxGeometry x="555" y="572" width="120" height="60" as="geometry" />
        </mxCell>
        <mxCell id="1JL5kzAqauOL_0TZosul-29" value="" style="endArrow=block;startArrow=block;html=1;entryX=0.5;entryY=1;entryDx=0;entryDy=0;rounded=0;endFill=1;startFill=1;strokeWidth=2;" parent="_f3NkgD60LeYl-ViCV9c-1" target="1JL5kzAqauOL_0TZosul-22" edge="1">
          <mxGeometry width="50" height="50" relative="1" as="geometry">
            <mxPoint x="430" y="540" as="sourcePoint" />
            <mxPoint x="930" y="460" as="targetPoint" />
            <Array as="points">
              <mxPoint x="430" y="500" />
              <mxPoint x="925" y="500" />
            </Array>
          </mxGeometry>
        </mxCell>
        <mxCell id="1JL5kzAqauOL_0TZosul-32" value="B" style="text;html=1;strokeColor=none;fillColor=none;align=center;verticalAlign=middle;whiteSpace=wrap;rounded=0;" parent="_f3NkgD60LeYl-ViCV9c-1" vertex="1">
          <mxGeometry x="500" y="592" width="40" height="20" as="geometry" />
        </mxCell>
        <mxCell id="1JL5kzAqauOL_0TZosul-34" value="A" style="text;html=1;strokeColor=none;fillColor=none;align=center;verticalAlign=middle;whiteSpace=wrap;rounded=0;" parent="_f3NkgD60LeYl-ViCV9c-1" vertex="1">
          <mxGeometry x="410" y="590" width="40" height="20" as="geometry" />
        </mxCell>
        <mxCell id="1JL5kzAqauOL_0TZosul-35" value="C" style="text;html=1;strokeColor=none;fillColor=none;align=center;verticalAlign=middle;whiteSpace=wrap;rounded=0;" parent="_f3NkgD60LeYl-ViCV9c-1" vertex="1">
          <mxGeometry x="595" y="592" width="40" height="20" as="geometry" />
        </mxCell>
        <mxCell id="1JL5kzAqauOL_0TZosul-36" value="" style="rounded=0;whiteSpace=wrap;html=1;strokeWidth=2;gradientColor=#ffffff;" parent="_f3NkgD60LeYl-ViCV9c-1" vertex="1">
          <mxGeometry x="400" y="682" width="250" height="40" as="geometry" />
        </mxCell>
        <mxCell id="1JL5kzAqauOL_0TZosul-37" value="&lt;font style=&quot;font-size: 17px&quot; face=&quot;Courier New&quot;&gt;&lt;b&gt;&lt;font style=&quot;font-size: 17px&quot;&gt;&lt;font style=&quot;font-size: 17px&quot;&gt;Client Server&lt;/font&gt;&lt;/font&gt;&lt;font style=&quot;font-size: 17px&quot;&gt; Nodes&lt;/font&gt;&lt;/b&gt;&lt;/font&gt;" style="text;html=1;strokeColor=none;fillColor=none;align=center;verticalAlign=middle;whiteSpace=wrap;rounded=0;" parent="_f3NkgD60LeYl-ViCV9c-1" vertex="1">
          <mxGeometry x="420" y="692" width="200" height="20" as="geometry" />
        </mxCell>
        <mxCell id="1JL5kzAqauOL_0TZosul-11" value="" style="group" parent="_f3NkgD60LeYl-ViCV9c-1" vertex="1" connectable="0">
          <mxGeometry x="80" y="140" width="160" height="40" as="geometry" />
        </mxCell>
        <mxCell id="1JL5kzAqauOL_0TZosul-9" value="" style="rounded=0;whiteSpace=wrap;html=1;" parent="1JL5kzAqauOL_0TZosul-11" vertex="1">
          <mxGeometry x="6.153846153846153" width="147.69230769230768" height="40" as="geometry" />
        </mxCell>
        <mxCell id="1JL5kzAqauOL_0TZosul-10" value="&lt;b&gt;Create/Build Container&lt;/b&gt;" style="text;html=1;strokeColor=none;fillColor=none;align=center;verticalAlign=middle;whiteSpace=wrap;rounded=0;" parent="1JL5kzAqauOL_0TZosul-11" vertex="1">
          <mxGeometry y="10" width="160" height="20" as="geometry" />
        </mxCell>
        <mxCell id="1JL5kzAqauOL_0TZosul-8" style="edgeStyle=orthogonalEdgeStyle;rounded=0;orthogonalLoop=1;jettySize=auto;html=1;exitX=0.5;exitY=0;exitDx=0;exitDy=0;entryX=0;entryY=0.617;entryDx=0;entryDy=0;entryPerimeter=0;" parent="_f3NkgD60LeYl-ViCV9c-1" source="1JL5kzAqauOL_0TZosul-5" target="1JL5kzAqauOL_0TZosul-1" edge="1">
          <mxGeometry relative="1" as="geometry">
            <mxPoint x="550" y="160" as="targetPoint" />
          </mxGeometry>
        </mxCell>
        <mxCell id="1JL5kzAqauOL_0TZosul-39" style="edgeStyle=orthogonalEdgeStyle;rounded=0;orthogonalLoop=1;jettySize=auto;html=1;startArrow=none;startFill=0;endArrow=none;endFill=0;strokeWidth=2;" parent="_f3NkgD60LeYl-ViCV9c-1" source="1JL5kzAqauOL_0TZosul-9" edge="1">
          <mxGeometry relative="1" as="geometry">
            <mxPoint x="430" y="160" as="targetPoint" />
          </mxGeometry>
        </mxCell>
        <mxCell id="1JL5kzAqauOL_0TZosul-44" value="" style="group" parent="_f3NkgD60LeYl-ViCV9c-1" vertex="1" connectable="0">
          <mxGeometry x="100" y="40" width="120" height="40" as="geometry" />
        </mxCell>
        <mxCell id="1JL5kzAqauOL_0TZosul-5" value="" style="rounded=0;whiteSpace=wrap;html=1;" parent="1JL5kzAqauOL_0TZosul-44" vertex="1">
          <mxGeometry width="120" height="40" as="geometry" />
        </mxCell>
        <mxCell id="1JL5kzAqauOL_0TZosul-6" value="&lt;b&gt;Push files&lt;/b&gt;" style="text;html=1;strokeColor=none;fillColor=none;align=center;verticalAlign=middle;whiteSpace=wrap;rounded=0;" parent="1JL5kzAqauOL_0TZosul-44" vertex="1">
          <mxGeometry x="30" y="10" width="70" height="20" as="geometry" />
        </mxCell>
        <mxCell id="1JL5kzAqauOL_0TZosul-46" value="" style="rounded=0;whiteSpace=wrap;html=1;strokeWidth=2;" parent="_f3NkgD60LeYl-ViCV9c-1" vertex="1">
          <mxGeometry x="20" y="302.5" width="290" height="35" as="geometry" />
        </mxCell>
        <mxCell id="1JL5kzAqauOL_0TZosul-47" value="Text" style="text;html=1;strokeColor=none;fillColor=none;align=center;verticalAlign=middle;whiteSpace=wrap;rounded=0;" parent="_f3NkgD60LeYl-ViCV9c-1" vertex="1">
          <mxGeometry x="780" y="50" width="40" height="20" as="geometry" />
        </mxCell>
        <mxCell id="1JL5kzAqauOL_0TZosul-48" value="&lt;font style=&quot;font-size: 17px&quot; face=&quot;Courier New&quot;&gt;&lt;b&gt;&lt;font style=&quot;font-size: 17px&quot;&gt;Local Machine&lt;/font&gt;&lt;br&gt;&lt;/b&gt;&lt;/font&gt;" style="text;html=1;strokeColor=none;fillColor=none;align=center;verticalAlign=middle;whiteSpace=wrap;rounded=0;" parent="_f3NkgD60LeYl-ViCV9c-1" vertex="1">
          <mxGeometry x="32" y="309.5" width="250" height="20" as="geometry" />
        </mxCell>
        <mxCell id="1JL5kzAqauOL_0TZosul-49" value="&lt;font face=&quot;Courier New&quot;&gt;&lt;b&gt;&lt;font style=&quot;font-size: 17px&quot;&gt;Master Server&lt;br&gt;&lt;/font&gt;&lt;/b&gt;&lt;/font&gt;" style="rounded=0;whiteSpace=wrap;html=1;strokeWidth=2;" parent="_f3NkgD60LeYl-ViCV9c-1" vertex="1">
          <mxGeometry x="680" y="40" width="250" height="40" as="geometry" />
        </mxCell>
      </root>
    </mxGraphModel>
  </diagram>
</mxfile>
